<svg xmlns="http://www.w3.org/2000/svg" viewBox="0 0 511.87 486.25"><title>Asset 1</title><g id="Layer_2" data-name="Layer 2"><g id="Capa_1" data-name="Capa 1"><path d="M490.11,0H132.57a21.78,21.78,0,0,0-21.76,21.76v98.62L94.46,95.85a25.31,25.31,0,0,0-34.14-7.68L26.69,108.4A49.33,49.33,0,0,0,4.14,137.64C-8.13,182.32,1,259.3,114,372.31c89.86,89.76,156.86,113.94,203,113.94a119.18,119.18,0,0,0,31.66-4.13A49.47,49.47,0,0,0,377.9,459.6l20.2-33.68a25.29,25.29,0,0,0-7.68-34.09l-80.55-53.69a25.42,25.42,0,0,0-34,5.52l-23.45,30.15A8.15,8.15,0,0,1,242,376l-4.47-2.46c-14.68-8-33-18-69.87-54.88-4-4-7.62-7.73-11-11.31H490.11a21.74,21.74,0,0,0,21.76-21.66V21.76A21.78,21.78,0,0,0,490.11,0ZM229.32,388.55l4.33,2.38a25.16,25.16,0,0,0,32.22-6.64l23.45-30.15a8.29,8.29,0,0,1,11.09-1.8L381,406a8.27,8.27,0,0,1,2.5,11.1l-20.2,33.67a32.46,32.46,0,0,1-19.13,14.85c-40.33,11.09-110.93,1.7-218.07-105.45S9.56,182.46,20.63,142.16A32.43,32.43,0,0,1,35.47,123l33.67-20.2a8.24,8.24,0,0,1,11.09,2.5L134,185.87a8.3,8.3,0,0,1-1.8,11.1L102,220.42a25.15,25.15,0,0,0-6.64,32.21L97.74,257c8.54,15.65,19.14,35.13,57.81,73.78S213.68,380,229.32,388.55ZM494.81,285.71a4.66,4.66,0,0,1-4.7,4.61H141.2a214.7,214.7,0,0,1-28.47-41.51l-2.46-4.48a8.13,8.13,0,0,1,2.2-10.42l30.16-23.46a25.41,25.41,0,0,0,5.52-34L127.87,146V21.76a4.64,4.64,0,0,1,4.7-4.69H490.11a4.64,4.64,0,0,1,4.7,4.69Z"/><path d="M472.67,41.15a8.53,8.53,0,0,0-11.94-1.64L318.11,147.67a11.53,11.53,0,0,1-13.54,0L162,39.51a8.54,8.54,0,0,0-10.32,13.6L294.27,161.26a28.71,28.71,0,0,0,34.14,0L471,53.11a8.53,8.53,0,0,0,1.64-12Z"/><path d="M238.52,162,151.1,255.59a8.54,8.54,0,0,0,12.49,11.64L251,173.58A8.53,8.53,0,0,0,238.52,162Z"/><path d="M384.73,162a8.54,8.54,0,0,0-12.49,11.64l87.39,93.61a8.54,8.54,0,0,0,12.49-11.64Z"/></g></g></svg>