<svg xmlns="http://www.w3.org/2000/svg" viewBox="0 0 30.68 43.81"><title>Asset 1</title><g id="Layer_2" data-name="Layer 2"><g id="Layer_1-2" data-name="Layer 1"><path d="M15.48,9.6a5.6,5.6,0,1,0,5.6,5.6,5.6,5.6,0,0,0-5.6-5.6Zm0,9.6a4,4,0,1,1,4-4,4,4,0,0,1-4,4Z"/><path d="M26.19,4.49a15.35,15.35,0,0,0-21.7,0c-5.36,5.37-6,15.45-1.44,21.57L15.34,43.81,27.61,26.08c4.61-6.14,3.94-16.22-1.42-21.59Zm.13,20.66L15.34,41l-11-15.88C.19,19.58.78,10.47,5.62,5.62a13.76,13.76,0,0,1,19.44,0c4.84,4.85,5.44,14,1.26,19.53Z"/></g></g></svg>