<svg xmlns="http://www.w3.org/2000/svg" viewBox="0 0 44 47.2"><title>Asset 1</title><g id="Layer_2" data-name="Layer 2"><g id="Layer_1-2" data-name="Layer 1"><path d="M30.34,33.54a8.41,8.41,0,0,0-1.09,1.37L15.43,26.52a7.94,7.94,0,0,0,0-5.91l13.83-8.33A8,8,0,1,0,28,8a7.77,7.77,0,0,0,.54,2.85L14.69,19.19a8,8,0,1,0,0,8.75l13.84,8.4A8.15,8.15,0,0,0,28,39.2a8,8,0,1,0,2.34-5.66ZM36,1.6A6.4,6.4,0,1,1,29.6,8,6.41,6.41,0,0,1,36,1.6ZM8,30a6.4,6.4,0,1,1,6.4-6.39A6.4,6.4,0,0,1,8,30ZM40.53,43.73A6.41,6.41,0,0,1,29.6,39.2a6.4,6.4,0,0,1,12.8,0,6.4,6.4,0,0,1-1.87,4.53Z"/></g></g></svg>