<?xml version="1.0" encoding="UTF-8" standalone="no"?>
<svg
   xmlns:dc="http://purl.org/dc/elements/1.1/"
   xmlns:cc="http://creativecommons.org/ns#"
   xmlns:rdf="http://www.w3.org/1999/02/22-rdf-syntax-ns#"
   xmlns:svg="http://www.w3.org/2000/svg"
   xmlns="http://www.w3.org/2000/svg"
   viewBox="0 0 600 68.099998"
   height="68.099998"
   width="600"
   version="1.1"
   id="svg2">
  <metadata
     id="metadata8">
    <rdf:RDF>
      <cc:Work
         rdf:about="">
        <dc:format>image/svg+xml</dc:format>
        <dc:type
           rdf:resource="http://purl.org/dc/dcmitype/StillImage" />
        <dc:title></dc:title>
      </cc:Work>
    </rdf:RDF>
  </metadata>
  <defs
     id="defs6" />
  <path
     id="path3338"
     d="m 77.58673,67.821773 c -0.07855,-0.20625 -0.108069,-15.495 -0.06559,-33.974999 l 0.07725,-33.59999841 28.95,0 28.95,0 0.0763,33.82499841 0.0763,33.824999 -4.95696,0 -4.95697,0 0.0807,-14.400075 0.0807,-14.400077 -19.425,7.8e-5 -19.425,7.5e-5 0,14.549999 0,14.55 -4.659414,0 c -3.451359,0 -4.696449,-0.09723 -4.802244,-0.375 z m 48.22852,-48.224847 -0.0831,-9.6001513 -19.34186,0 -19.341862,0 0,9.5999993 0,9.6 19.425002,1.52e-4 19.425,1.51e-4 -0.0831,-9.600151 z m 29.23463,48.401337 c -0.11082,-0.11082 -0.20149,-15.366489 -0.20149,-33.90149 l 0,-33.69999751 29.1,0 29.1,0 0,9.59999921 0,9.5999993 -4.95,0 -4.95,0 0,-4.799999 0,-4.8000003 -19.35,0 -19.35,0 0,24.1499993 0,24.149999 19.35,0 19.35,0 0,-9.599999 0,-9.6 -9.6,0 -9.6,0 0,-4.95288 0,-4.952882 14.475,0.07788 14.475,0.07788 0,19.35 0,19.349999 -28.82351,0.07649 c -15.85293,0.04207 -28.91418,-0.01419 -29.025,-0.125001 z m 77.40584,0.0058 c -0.11403,-0.113992 -0.20733,-15.372289 -0.20733,-33.90729 l 0,-33.69999751 29.1,0 29.1,0 0,19.34681251 0,19.346811 -12.90573,0.07819 -12.90573,0.07819 12.77232,14.230484 c 7.02477,7.826769 12.84032,14.340519 12.92343,14.475 0.0831,0.134484 -2.74054,0.244515 -6.27479,0.244515 l -6.42592,0 -13.01679,-14.535899 -13.01679,-14.535893 -4.72212,-0.01411 -4.72212,-0.01411 -0.0779,14.474999 -0.0779,14.475 -4.66767,0.08233 c -2.56722,0.04528 -4.76097,-0.01098 -4.875,-0.124998 z m 48.32182,-48.332339 0.0792,-9.6749993 -19.35415,0 -19.35416,0 0,9.7522043 0,9.752204 19.275,-0.0772 19.275,-0.0772 0.0792,-9.675 z m -256.429152,19.27505 0,-28.9499993 -12.15,0 -12.15000018,0 0,-4.7999996 0,-4.79999961 29.10000018,0 29.1,0 0,4.79999961 0,4.7999996 -12.15,0 -12.15,0 0,28.9499993 0,28.949999 -4.8,0 -4.8,0 0,-28.949999 z m 285.300002,-4.8 0,-33.74999851 29.1,0 29.1,0 0,33.74999851 0,33.749999 -29.1,0 -29.1,0 0,-33.749999 z m 48.3,0 0,-24.1499993 -19.35,0 -19.35,0 0,24.1499993 0,24.149999 19.35,0 19.35,0 0,-24.149999 z m 29.1,0 0,-33.74999851 4.8,0 4.8,0 0,28.94999851 0,28.949999 19.35,0 19.35,0 0,-28.949999 0,-28.94999851 4.8,0 4.8,0 0,33.74999851 0,33.749999 -28.95,0 -28.95,0 0,-33.749999 z m 77.4,0 0,-33.74999851 29.1,0 29.1,0 0,9.59999921 0,9.5999993 -4.95,0 -4.95,0 0,-4.799999 0,-4.8000003 -19.35,0 -19.35,0 0,24.1499993 0,24.149999 19.35,0 19.35,0 0,-9.599999 0,-9.6 -9.6,0 -9.6,0 0,-4.95288 0,-4.952882 14.475,0.07788 14.475,0.07788 0.0772,19.275 0.0772,19.274999 -29.10222,0 -29.10219,0 0,-33.749999 z m 77.55,0 0,-33.74999851 29.025,0 29.025,0 0,4.79999961 0,4.7999996 -24.15,0 -24.15,0 0,9.5982143 0,9.598215 24.075,0.07679 24.075,0.07678 0.0824,4.875 0.0824,4.875 -24.15741,0 -24.15744,0 0,9.6 0,9.599999 24.15,0 24.15,0 0,4.8 0,4.8 -29.025,0 -29.025,0 0,-33.749999 z"
     style="fill:#000000" />
</svg>
